<svg id="Layer_1" data-name="Layer 1" xmlns="http://www.w3.org/2000/svg" viewBox="0 0 288 288"><defs><style>.cls-1{fill:#c08fff;}</style></defs><title>zygote icon</title><path class="cls-1" d="M63.94,224.05l.07,0-.08,0Z"/><path class="cls-1" d="M224.06,64l-.07,0,.07,0Z"/><path class="cls-1" d="M202.31,16.34l0-.06-.22-.25-.28.06A139.5,139.5,0,0,0,144,3.64C66.6,3.64,3.64,66.6,3.64,144A140.55,140.55,0,0,0,85.69,271.66l0,.06.21.25.29-.06A139.5,139.5,0,0,0,144,284.36c77.4,0,140.36-63,140.36-140.36A140.55,140.55,0,0,0,202.31,16.34ZM241,211.45l-.06.05q-2.28,1.73-4.66,3.43l-.24.16-2.21,1.55-.27.18-2.24,1.52-.1.07c-.82.54-1.64,1.08-2.47,1.61l-.51.33c-.7.45-1.4.9-2.11,1.34l-.37.23-2.31,1.43-.43.25L220.72,225l-.4.23c-.79.47-1.59.93-2.39,1.39l-.45.25-2.4,1.35-.52.29-2.38,1.29-.64.35-2.31,1.22-.81.42-2.19,1.13-.9.44-2.16,1.09-.79.38-2.32,1.13-.79.37-2.37,1.12-.77.35-2.44,1.12-.84.38-2.42,1.07-.85.37-2.46,1.07-.78.32-2.57,1.09-.72.29-2.68,1.1-.76.3c-.9.36-1.79.72-2.7,1.07l-.59.23-2.9,1.12-.57.21-3,1.12-.44.16-3.14,1.14-.49.17c-1,.38-2.09.75-3.14,1.11l-.43.15c-1.07.37-2.16.75-3.24,1.11l-.29.1-3.43,1.14-.11,0q-5.49,1.8-11.16,3.49-2.67-.79-5.29-1.62l-.67-.21L133.49,254l-1.67-.55-3.46-1.16-2-.67c-1-.35-2.08-.71-3.11-1.08l-2.06-.73-2.9-1.06-2.13-.79-2.75-1-2.14-.83-2.65-1-2.13-.86c-.86-.35-1.73-.7-2.58-1.06l-2.11-.88-2.51-1.07-2.07-.91-2.46-1.09-2-.92c-.82-.37-1.63-.75-2.43-1.13l-2-.92L86,235l-1.88-.92-2.39-1.2L79.9,232l-2.4-1.26-1.69-.9c-.84-.45-1.66-.91-2.48-1.36l-1.53-.84-.25-.15.59.17c1.18.36,2.36.7,3.54,1L77,229q1.57.44,3.15.84l1.19.3c1.42.35,2.84.69,4.25,1l.34.08c1.3.29,2.6.56,3.89.82l1.25.25,3.13.58,1.21.21c2.8.48,5.59.89,8.35,1.23l1.22.14,3,.32,1.27.12c1.22.11,2.44.21,3.66.29l.45,0c1.35.09,2.69.16,4,.21l1.19,0,2.92.07h2.11l1.16,0c1,0,2.07,0,3.1-.05l1.84-.07c1,0,2-.09,3-.15l1.78-.12c1.07-.08,2.12-.18,3.18-.28.5,0,1-.09,1.51-.15,1.54-.17,3.08-.36,4.6-.58,24.17-3.52,45.24-13.68,61-29.38,16-16,26.2-37.49,29.56-62.2.2-1.48.38-3,.53-4.48,0-.49.08-1,.13-1.49.09-1,.19-2,.26-3.06,0-.6.06-1.2.09-1.81,0-.93.11-1.86.14-2.79,0-.66,0-1.32.05-2,0-.9,0-1.79.05-2.7,0-.68,0-1.38,0-2.07,0-.88,0-1.76,0-2.64,0-.72-.05-1.45-.08-2.17s-.06-1.72-.11-2.59-.11-1.5-.16-2.24-.11-1.71-.18-2.57-.15-1.52-.23-2.28-.16-1.71-.26-2.56-.2-1.56-.29-2.33-.22-1.7-.34-2.56-.24-1.57-.36-2.35-.26-1.71-.41-2.56-.29-1.59-.43-2.38-.31-1.71-.48-2.56-.34-1.6-.51-2.4-.35-1.71-.55-2.56-.38-1.62-.57-2.42-.41-1.71-.62-2.57-.43-1.62-.65-2.43-.45-1.71-.69-2.57-.47-1.62-.71-2.43-.5-1.72-.77-2.58-.52-1.62-.78-2.43c-.21-.66-.41-1.32-.63-2l1.24.79,1.66,1.05L230.35,69c.54.35,1.07.7,1.59,1.06s1.14.77,1.7,1.16l1.54,1.06c.56.39,1.1.78,1.65,1.18l1.48,1.06,1.6,1.2,1.43,1.07c.52.4,1,.8,1.55,1.21l1.37,1.07,1.51,1.23,1.3,1.07,1.46,1.25,1.25,1.08L251.19,85l1.2,1.08,1.36,1.28,1.14,1.08c.44.43.87.87,1.3,1.3l1.09,1.08c.43.44.84.88,1.25,1.31s.7.73,1,1.09.81.89,1.21,1.33.65.72,1,1.09.77.89,1.15,1.34.62.72.92,1.09l1.09,1.35.87,1.09c.36.46.69.92,1,1.37l.82,1.1,1,1.38.77,1.09.92,1.4c.24.36.48.73.71,1.1s.58.94.86,1.41l.67,1.09.8,1.42.61,1.1.74,1.43c.19.37.38.73.56,1.1s.45,1,.68,1.43.35.74.51,1.12.41,1,.62,1.44.32.74.46,1.11.37,1,.55,1.45.29.74.42,1.12.33,1,.49,1.45.25.75.37,1.13.28,1,.42,1.47l0,.12a139.27,139.27,0,0,1,1,16.69,136.79,136.79,0,0,1-1,16.54c-4.86,17.2-17.27,34-36.53,49.15ZM136.69,259.37c-1.22.35-2.45.68-3.67,1l-2.94.8c-1.26.34-2.53.66-3.8,1l-2.9.76-4,1-2.85.7-4.15,1-2.74.64c-1.5.34-3,.66-4.53,1l-2.45.54c-1.86.4-3.74.78-5.62,1.16l-1.43.3-4.69.91q-3.6-1.53-7.09-3.25-2.57-4.35-4.93-8.74c-.31-.57-.6-1.15-.9-1.72-.66-1.26-1.33-2.52-2-3.79-.36-.72-.7-1.44-1-2.16-.56-1.13-1.12-2.25-1.66-3.39-.37-.78-.71-1.56-1.07-2.35-.5-1.07-1-2.14-1.47-3.22-.36-.81-.7-1.63-1-2.45-.45-1.05-.9-2.09-1.33-3.14-.35-.84-.67-1.68-1-2.52-.41-1-.82-2.06-1.21-3.09-.33-.85-.63-1.71-1-2.57s-.64-1.74-.94-2.61c1.09.38,2.18.74,3.27,1.1q2,1.14,4,2.27l1.17.64,2.93,1.61,1.7.89c.83.44,1.66.88,2.5,1.31l1.88.95,2.42,1.23,2,.94,2.44,1.19,2,.95,2.45,1.14,2.13.95,2.47,1.09,2.2,1,2.48,1.06,2.27.94,2.51,1,2.33.92,2.55,1,2.39.91,2.57,1c.82.31,1.65.6,2.47.9L122,251l2.54.89,2.61.91,2.61.87,2.62.88,2.7.87,2.61.83,2.81.86,1.92.6-2.8.81Zm-77.3-39.24L57.65,219l-1.6-1.06c-.57-.38-1.13-.77-1.69-1.16l-1.54-1.06c-.56-.39-1.1-.78-1.65-1.18l-1.48-1.06-1.61-1.2-1.42-1.06L45.11,210l-1.37-1.08-1.5-1.22-1.32-1.08-1.45-1.25-1.26-1.08L36.81,203,35.61,202l-1.36-1.28-1.14-1.08-1.31-1.3-1.08-1.08-1.26-1.31c-.34-.37-.69-.73-1-1.09l-1.2-1.33c-.32-.36-.65-.72-1-1.09s-.77-.89-1.15-1.34-.62-.72-.92-1.09l-1.09-1.35-.87-1.09c-.36-.46-.7-.92-1-1.37l-.82-1.1c-.33-.45-.65-.91-1-1.37l-.77-1.1-.91-1.39c-.24-.37-.49-.74-.72-1.11s-.58-.93-.86-1.4l-.67-1.1c-.27-.47-.53-.94-.79-1.42s-.42-.73-.62-1.1-.49-.95-.74-1.43-.38-.73-.56-1.1-.45-1-.68-1.44-.35-.74-.51-1.11-.41-1-.62-1.44-.32-.74-.46-1.11-.37-1-.55-1.45-.29-.75-.42-1.12-.33-1-.49-1.46l-.37-1.11c-.15-.5-.28-1-.42-1.48l0-.12a136.58,136.58,0,0,1,0-33.24c4.86-17.19,17.27-33.95,36.53-49.14Q51.4,73,59.13,68l.1-.06c1.69-1.09,3.42-2.18,5.19-3.25l.11-.07c.89-.54,1.79-1.08,2.7-1.61l0,0c.9-.53,1.81-1.06,2.73-1.58l.06,0c1.74-1,3.52-2,5.32-2.95l.42-.23c.86-.47,1.73-.92,2.61-1.38l.34-.19,2.52-1.29.49-.26,2.42-1.2c.21-.11.42-.22.64-.32.75-.38,1.52-.75,2.29-1.12l.82-.4,2-1,1.13-.53,2-.93,1.18-.54,1.89-.85,1.37-.6,1.72-.75,1.59-.69,1.61-.68,1.75-.73,1.55-.63,1.85-.76,1.41-.56,2-.81,1.13-.44,2.37-.91,1-.36,2.59-1,.79-.29,2.79-1,.7-.24,2.93-1,.63-.22,3-1,.29-.1,3.43-1.14.11,0q5.49-1.8,11.16-3.49l5.28,1.61.86.27L154.49,34l1.81.6c1.11.37,2.22.73,3.32,1.11l2.1.72,2.94,1,2.21.79,2.75,1,2.26.84,2.61,1,2.27.88,2.52,1,2.25.91,2.45,1c.75.31,1.49.62,2.22.94s1.6.68,2.4,1l2.18,1c.79.35,1.57.69,2.35,1l2.12,1,2.33,1.08,2,1L201.94,53l2,1,2.3,1.16c.63.32,1.27.64,1.89,1,.78.4,1.55.81,2.32,1.22l1.78.94c.81.43,1.6.87,2.4,1.31l1.59.89a2,2,0,0,1,.25.14l-.54-.16c-.72-.22-1.43-.42-2.14-.62L211.06,59l-2.15-.57-2.68-.68-2.16-.52-2.67-.61-2.14-.45q-1.33-.29-2.67-.54c-.71-.14-1.41-.27-2.12-.39-.89-.17-1.78-.32-2.67-.47l-2.09-.33L187,54,185,53.77l-2.69-.32-2-.21L177.56,53l-2-.16c-.92-.06-1.83-.12-2.74-.16-.63,0-1.26-.08-1.89-.1l-2.77-.09-1.82,0c-.94,0-1.87,0-2.8,0h-1.75c-1,0-1.9,0-2.85.08-.55,0-1.1,0-1.64.06-1,0-2,.11-3,.18l-1.49.1c-1.07.08-2.14.19-3.21.3l-1.17.11c-1.46.17-2.9.35-4.33.56C120,57.37,98.94,67.53,83.23,83.23c-16,16-26.2,37.49-29.56,62.2-.2,1.48-.38,3-.53,4.48-.06.52-.09,1.06-.14,1.59-.09,1-.18,2-.25,2.95,0,.64-.06,1.29-.1,1.93,0,.89-.1,1.78-.14,2.68,0,.69,0,1.39,0,2.09,0,.86,0,1.71,0,2.57s0,1.46,0,2.19,0,1.68,0,2.52.06,1.51.1,2.27,0,1.66.1,2.49.11,1.55.16,2.33.11,1.65.18,2.48.16,1.57.23,2.35.16,1.66.26,2.5.2,1.58.3,2.38.21,1.66.33,2.5.24,1.6.37,2.4.25,1.67.4,2.52.29,1.6.44,2.41.3,1.68.47,2.53.34,1.61.51,2.42.35,1.69.55,2.54.38,1.62.57,2.43.41,1.7.62,2.56.43,1.62.65,2.43.45,1.71.69,2.57.47,1.62.71,2.43.5,1.72.77,2.58.52,1.62.78,2.43c.21.66.41,1.32.63,2L61,221.18ZM151.33,28.62l3.54-1,3.07-.84,3.6-.94,3.11-.8,3.71-.92,3.09-.76c1.29-.31,2.58-.6,3.88-.9l3-.7,4.26-.94,2.7-.59c1.84-.39,3.69-.77,5.53-1.14l1.52-.32,4.69-.91q3.6,1.53,7.09,3.25c.64,1.08,1.29,2.17,1.91,3.26l.09.17q1.5,2.64,2.93,5.3c.36.67.69,1.34,1,2,.61,1.16,1.23,2.33,1.82,3.5.4.79.77,1.58,1.16,2.37.52,1.06,1,2.11,1.55,3.17.4.84.77,1.68,1.15,2.52.47,1,.94,2,1.39,3s.75,1.74,1.12,2.61.86,2,1.27,3,.7,1.78,1.06,2.67.78,2,1.15,2.94.67,1.8,1,2.7.62,1.66.91,2.5c-1.09-.38-2.18-.74-3.27-1.1-1.31-.76-2.63-1.52-4-2.27l-1-.54c-1-.57-2.06-1.15-3.11-1.71l-1.6-.85-2.59-1.36-1.87-.94-2.43-1.23-2-1c-.78-.39-1.56-.77-2.36-1.14s-1.42-.67-2.13-1l-2.36-1.09-2.23-1-2.36-1.05-2.33-1-2.35-1-2.41-1-2.37-1-2.49-1L176,40.73l-2.58-1c-.79-.3-1.59-.61-2.39-.9s-1.75-.64-2.63-1L166,37c-.88-.32-1.78-.63-2.68-.94l-2.46-.86-2.75-.92-2.48-.83-2.8-.9-2.53-.81-2.84-.87-1.9-.59,2.77-.8Zm74.85,41.77c.31,1,.59,2,.89,3,.21.73.44,1.45.64,2.18.27,1,.52,1.92.78,2.88.2.75.41,1.51.6,2.26.24.93.45,1.85.67,2.78.18.78.38,1.55.55,2.33s.38,1.79.57,2.68.35,1.6.5,2.39.32,1.71.47,2.56.32,1.66.45,2.48.26,1.65.38,2.47.27,1.69.39,2.53.2,1.61.3,2.41.22,1.7.31,2.55.15,1.55.22,2.32.18,1.73.25,2.59.09,1.48.14,2.22.13,1.77.17,2.65c0,.71,0,1.41.07,2.12,0,.89.08,1.8.09,2.69,0,.69,0,1.37,0,2.06,0,.9,0,1.8,0,2.69,0,.67,0,1.32-.06,2,0,.91,0,1.82-.08,2.72,0,.65-.08,1.28-.12,1.92,0,.91-.1,1.82-.17,2.72-.05.63-.12,1.25-.17,1.87-.09.9-.16,1.81-.26,2.71-.07.59-.15,1.18-.23,1.77-.11.92-.22,1.83-.35,2.73-.09.59-.19,1.16-.29,1.74-.14.9-.28,1.81-.44,2.7-.11.57-.23,1.13-.34,1.69-.18.89-.34,1.79-.54,2.68-.12.55-.26,1.08-.39,1.63-.21.89-.41,1.78-.63,2.65-.14.53-.29,1.05-.44,1.58-.24.88-.47,1.76-.73,2.63-.15.51-.32,1-.48,1.52-.28.87-.54,1.75-.84,2.61-.16.5-.35,1-.53,1.48-.3.86-.6,1.72-.92,2.56-.2.51-.42,1-.62,1.52-.33.81-.65,1.63-1,2.43-.21.48-.43.95-.64,1.43-.37.81-.73,1.63-1.11,2.43-.21.44-.44.86-.65,1.3-.41.82-.81,1.66-1.24,2.47-.25.46-.51.91-.76,1.36-.42.77-.84,1.55-1.28,2.31-.27.46-.56.91-.83,1.37-.45.73-.88,1.47-1.35,2.19-.3.47-.62.92-.92,1.39-.47.69-.92,1.39-1.4,2.08-.3.43-.62.84-.93,1.27-.51.7-1,1.4-1.53,2.08-.38.5-.79,1-1.18,1.47s-.94,1.2-1.43,1.78-1,1.12-1.47,1.68-.84,1-1.27,1.45c-.94,1-1.91,2-2.89,3-15.79,15.79-36.13,25.59-60.45,29.13a151,151,0,0,1-41,0l-.51-.06c-1.06-.14-2.13-.31-3.2-.47l-1.64-.24-2.23-.39-2.63-.45-1.57-.32c-1.1-.22-2.21-.43-3.31-.67l-1.3-.3c-1.2-.26-2.4-.53-3.61-.82l-1.12-.29c-1.26-.31-2.53-.63-3.79-1l-1.43-.4c-1.16-.33-2.33-.65-3.5-1-.7-.2-1.41-.43-2.11-.65L68,225.4,65.66,224l-.54-.33-1.64-1c-.34-1-.66-2-1-3-.23-.69-.47-1.39-.68-2.08-.31-1-.59-2-.89-3-.21-.72-.44-1.45-.64-2.18-.27-.95-.52-1.91-.77-2.86-.2-.76-.42-1.52-.61-2.28-.23-.91-.44-1.82-.66-2.73s-.39-1.59-.56-2.38-.37-1.73-.55-2.6-.36-1.65-.53-2.47-.3-1.65-.45-2.47-.32-1.72-.46-2.57-.24-1.57-.37-2.35-.28-1.77-.4-2.66c-.1-.74-.18-1.48-.28-2.22-.11-.91-.24-1.83-.34-2.73-.07-.7-.13-1.39-.19-2.09-.09-.94-.19-1.89-.27-2.83-.05-.65-.08-1.29-.12-1.94-.07-1-.14-1.95-.19-2.92,0-.62,0-1.22-.06-1.83,0-1-.09-2-.1-3,0-.57,0-1.13,0-1.69,0-1,0-2.05,0-3.07,0-.54,0-1.07,0-1.61,0-1,0-2.07.09-3.09,0-.52.07-1,.1-1.55,0-1,.11-2.07.19-3.09,0-.48.09-1,.13-1.43.09-1.05.18-2.1.3-3.14.05-.47.12-.92.18-1.38.13-1,.25-2.1.4-3.13.07-.44.15-.87.22-1.31.16-1,.32-2.09.51-3.13.08-.41.17-.82.25-1.24.2-1,.4-2.09.63-3.12.08-.39.19-.77.27-1.16.25-1,.49-2.1.75-3.13.09-.36.2-.71.3-1.07.28-1.05.56-2.1.87-3.14.1-.33.21-.66.32-1,.32-1,.64-2.1,1-3.13.11-.35.25-.69.37-1,.35-1,.71-2,1.09-3,.12-.33.26-.65.39-1,.39-1,.79-2,1.21-3,.15-.35.32-.69.47-1,.42-.94.84-1.89,1.28-2.82.18-.37.37-.73.55-1.1.44-.89.88-1.78,1.34-2.66l.61-1.1c.47-.86.94-1.72,1.43-2.57.19-.33.4-.65.6-1,.52-.87,1-1.74,1.58-2.59.21-.33.44-.65.66-1,.55-.83,1.09-1.67,1.66-2.48L74,95.44c.53-.73,1-1.47,1.6-2.18.33-.43.68-.84,1-1.26.53-.66,1.05-1.34,1.6-2s1-1.12,1.47-1.68.84-1,1.27-1.45c.94-1,1.9-2,2.89-3C99.65,68.07,120,58.27,144.31,54.73c17.42-2.54,36.51-1.64,56.08,2.57l.12,0c1.59.34,3.18.7,4.78,1.09l.79.2c1.37.34,2.75.69,4.12,1.06l1.35.38c1.19.33,2.38.66,3.58,1l2,.64c1,.29,1.91.58,2.86.89L222.36,64l.27.16,1.89,1.15c.34,1,.66,2,1,3C225.72,69,226,69.69,226.18,70.39ZM63.94,224.05v0l.08,0ZM224.06,64v0l-.07,0Zm54.46,56.77c-.12-.29-.23-.59-.35-.89-.22-.54-.46-1.08-.69-1.63-.12-.26-.23-.52-.35-.79-.32-.71-.65-1.43-1-2.14L276,115c-.39-.8-.8-1.59-1.23-2.38-.13-.25-.27-.49-.4-.73q-.45-.82-.93-1.65l-.51-.88c-.31-.5-.61-1-.93-1.51-.18-.3-.37-.6-.56-.9-.33-.51-.67-1-1-1.53l-.55-.83q-.64-.93-1.32-1.86l-.33-.47c-.56-.77-1.14-1.53-1.73-2.3l-.56-.69c-.42-.54-.85-1.08-1.29-1.61l-.72-.87-1.23-1.44-.79-.9L260.62,93l-.78-.84c-.52-.56-1-1.11-1.59-1.67l-.57-.58c-.73-.74-1.47-1.48-2.23-2.22l-.66-.63L253.1,85.5l-.92-.83-1.54-1.39-1-.87L248,81.05l-1-.84L245.2,78.7l-.81-.65c-.9-.71-1.8-1.42-2.72-2.12l-.72-.54-2.13-1.59L237.73,73l-1.87-1.34-1.2-.83-1.89-1.29-1.2-.81c-.71-.47-1.42-.94-2.14-1.4l-1-.66c-1-.67-2.08-1.33-3.15-2h0c0-.12-.08-.24-.13-.37l2.62,1,2.55.94c1,.39,2.07.81,3.1,1.22.84.33,1.68.65,2.51,1,1.06.43,2.11.89,3.16,1.34.81.34,1.62.68,2.43,1,1.09.48,2.17,1,3.26,1.48l2.31,1.06c1.16.55,2.31,1.12,3.46,1.69.69.34,1.39.67,2.08,1,1.31.66,2.61,1.34,3.9,2l1.62.84q4.39,2.36,8.74,4.93a135.6,135.6,0,0,1,12.2,38.29C278.89,121.68,278.71,121.2,278.52,120.72ZM266.05,82.36c-.85-.49-1.7-1-2.55-1.47l-2.93-1.62L258,77.88c-1-.53-2-1-3-1.56L252.53,75c-1-.52-2.07-1-3.11-1.52L247,72.35c-1.09-.51-2.19-1-3.28-1.5-.76-.34-1.52-.7-2.29-1-1.2-.53-2.41-1-3.61-1.54l-2-.83c-1.77-.73-3.55-1.42-5.33-2.1l-1.22-.45c-1.51-.56-3-1.12-4.55-1.65h0q-.9-2.59-1.88-5.17l-.12-.34q-1.06-2.81-2.2-5.6c-.24-.58-.5-1.15-.74-1.73-.53-1.29-1.07-2.57-1.63-3.86-.32-.71-.65-1.41-1-2.12-.52-1.15-1-2.3-1.57-3.44-.36-.77-.74-1.53-1.11-2.29-.52-1.08-1-2.17-1.58-3.25-.4-.79-.82-1.59-1.23-2.38-.53-1-1.06-2.08-1.61-3.12-.44-.82-.89-1.63-1.34-2.45-.55-1-1.1-2-1.67-3L205.67,22l-.09-.15a137.79,137.79,0,0,1,60.57,60.57ZM194.7,17.44l-3.13.61-4,.82-3.1.65c-1.33.28-2.64.58-4,.87l-3,.67c-1.34.3-2.66.62-4,.93-1,.23-2,.45-2.93.69-1.35.32-2.69.66-4,1l-2.79.69-4.15,1.09-2.58.67c-1.52.41-3,.84-4.54,1.26l-2.08.57q-3.24.93-6.42,1.87L140,28.64l-5.16-1.46c-1.27-.35-2.53-.71-3.82-1.05-1-.27-2-.52-3-.78-1.24-.33-2.48-.66-3.74-1l-3.06-.76c-1.25-.31-2.5-.63-3.76-.93-1-.25-2.06-.48-3.09-.72-1.27-.3-2.54-.61-3.82-.9l-3.11-.68-3.89-.86-3.13-.65-4-.82-3.14-.62-.84-.16a136.68,136.68,0,0,1,103.08,0Zm-99,1.35c.44.09.88.19,1.32.27,1.91.39,3.83.78,5.73,1.19l2.63.57c1.45.32,2.9.63,4.33,1,1,.22,2,.46,3,.69l3.92.91,3.07.76c1.25.3,2.5.6,3.73.92l3.09.8,3.62.94,3.05.84,3.56,1,3,.87,2.77.8-1.09.34-2.06.63-1.76.55-2,.64-1.78.57-1.93.63-1.82.6-1.87.63-1.83.63-1.8.63-1.85.65-1.76.63-1.85.67-1.71.63-1.86.7-1.65.62-1.87.72-1.61.63-1.88.74-1.54.62-1.89.77-1.5.62-1.88.79-1.45.62c-.64.27-1.27.54-1.89.82L96.9,47c-.64.27-1.26.56-1.89.84l-1.36.61-1.88.86-1.31.6-1.88.89-1.27.61-1.85.89-1.25.61-1.85.93-1.2.6-1.84.95-1.15.6-1.82,1-1.13.6-1.78,1-1.12.62-1.77,1-1.06.6-1.74,1-1,.61-1.72,1c-.34.2-.68.4-1,.61l-1.72,1-1,.6-1.66,1.06-1,.61L57,68.37l-.91.6-1.64,1.11-.86.59L52,71.81l-.81.57c-.57.4-1.12.81-1.67,1.21l-.72.52c-.59.43-1.17.87-1.75,1.31l-.58.43-2.27,1.76Q42.45,79,40.8,80.35l-.63.53c-1.05.89-2.09,1.78-3.1,2.68l-.57.51c-1,.91-2,1.81-2.94,2.72l-.13.12c-1,.94-1.93,1.88-2.86,2.82L30,90.3c-.89.92-1.77,1.84-2.62,2.77l-.46.51c-.81.91-1.61,1.82-2.39,2.73l-.2.24c-.81,1-1.58,1.91-2.33,2.87l-.48.61c-.73.94-1.44,1.89-2.12,2.84l-.36.51c-.64.91-1.26,1.81-1.86,2.72l-.24.36c-.62,1-1.22,1.93-1.8,2.9l-.39.66c-.56,1-1.1,1.92-1.62,2.89l-.26.51q-.71,1.35-1.35,2.7l-.23.47c-.45,1-.87,1.94-1.28,2.92l-.29.69c-.29.74-.58,1.48-.85,2.22A137.25,137.25,0,0,1,91,17.88ZM9.47,167.26c.12.31.24.61.37.92.21.53.44,1.06.67,1.6l.36.82c.31.69.64,1.38,1,2.07.06.11.1.21.15.32.39.79.8,1.58,1.22,2.37l.43.77c.29.53.59,1.07.9,1.6l.54.91c.29.49.59,1,.89,1.47l.59.93c.32.5.65,1,1,1.49.19.29.38.58.58.87.41.59.82,1.18,1.25,1.77l.4.56c.56.76,1.13,1.52,1.71,2.27l.61.77,1.24,1.54c.25.3.5.61.76.91.39.46.78.93,1.18,1.39l.83.94,1.25,1.38.82.9c.5.52,1,1,1.51,1.57.22.22.43.45.65.68.72.73,1.45,1.46,2.2,2.18l.76.72,1.59,1.5,1,.89,1.48,1.33,1,.91c.51.44,1,.88,1.54,1.31.35.3.69.59,1,.88.58.49,1.18,1,1.77,1.45l.89.71c.88.71,1.78,1.41,2.69,2.1l.8.6,2.05,1.53,1.13.82,1.83,1.3,1.22.85,1.86,1.27,1.23.83,2.1,1.37,1.06.69c1,.66,2.08,1.32,3.14,2h0c0,.12.08.24.13.37-.89-.31-1.77-.64-2.66-1s-1.67-.6-2.51-.92c-1.06-.4-2.12-.83-3.18-1.25-.81-.32-1.62-.63-2.42-1-1.09-.45-2.18-.92-3.27-1.39-.77-.33-1.55-.65-2.33-1-1.13-.49-2.25-1-3.38-1.54l-2.19-1c-1.19-.56-2.37-1.15-3.56-1.74l-2-1c-1.34-.67-2.67-1.37-4-2.07-.51-.27-1-.52-1.53-.8-2.93-1.57-5.84-3.23-8.74-4.93a135.7,135.7,0,0,1-12.2-38.29ZM22,205.64l2.53,1.47c1,.56,2,1.1,3,1.64.83.45,1.66.92,2.49,1.36,1,.54,2,1.06,3,1.59.82.42,1.63.85,2.45,1.26,1,.52,2.09,1,3.13,1.52L41,215.65c1.08.51,2.16,1,3.24,1.48.77.35,1.55.71,2.33,1.05,1.15.51,2.31,1,3.47,1.48l2.11.89c1.63.67,3.27,1.3,4.9,1.93l1.92.72c1.43.53,2.85,1.05,4.28,1.55h0q.86,2.44,1.77,4.89c.08.21.15.42.23.62q1.06,2.81,2.2,5.59c.26.64.54,1.27.81,1.91.51,1.22,1,2.45,1.56,3.68.33.75.68,1.5,1,2.25.5,1.11,1,2.21,1.51,3.31.38.8.77,1.6,1.16,2.39.51,1.05,1,2.1,1.53,3.14.41.83.84,1.64,1.27,2.46.52,1,1,2,1.58,3.05.44.83.9,1.66,1.36,2.48.54,1,1.08,2,1.64,3,.47.83,1,1.66,1.44,2.49l.09.15a137.79,137.79,0,0,1-60.57-60.57Zm71.29,64.93,3.2-.62,3.9-.81,3.17-.66,3.86-.85,3.14-.69,3.78-.89,3.13-.73,3.74-.92,3.08-.77c1.23-.31,2.44-.64,3.66-1l3.07-.8,3.6-1q2.89-.81,5.75-1.63l3.67-1.07c2.12.63,4.26,1.26,6.42,1.87l2,.56,4.59,1.27,2.51.66c1.41.37,2.8.74,4.22,1.1l2.72.67,4.09,1,2.91.69c1.33.31,2.66.63,4,.93l3,.67c1.32.29,2.64.59,4,.87l3.11.65,4,.82,3.17.62.81.16a136.68,136.68,0,0,1-103.08,0Zm99.1-1.36-1.36-.28q-2.87-.58-5.69-1.18l-2.53-.55-4.44-1-2.9-.67-4-.93-3-.75c-1.26-.3-2.52-.61-3.77-.93l-3.06-.79-3.65-.95-3-.84-3.57-1-3-.86-2.77-.81,1.09-.34,2.07-.63,1.75-.55,2-.63,1.77-.58,2-.64,1.77-.59,1.9-.64,1.8-.61,1.85-.65c.6-.2,1.19-.42,1.79-.63l1.82-.64,1.78-.66,1.78-.65,1.78-.66,1.74-.66,1.78-.69,1.69-.66,1.78-.7,1.65-.66,1.76-.72,1.63-.67,1.75-.74,1.58-.67,1.75-.76,1.55-.67,1.72-.77,1.52-.68,1.71-.78,1.49-.69,1.68-.8,1.47-.69,1.65-.81,1.45-.7,1.63-.82,1.41-.71,1.62-.83,1.38-.71,1.58-.85,1.36-.72,1.55-.84,1.34-.74,1.52-.86,1.32-.74,1.48-.86,1.31-.76,1.46-.87,1.26-.76,1.45-.89,1.23-.76,1.41-.9,1.2-.77,1.42-.93,1.14-.75,1.4-.94,1.11-.76c.46-.31.91-.64,1.37-1l1.07-.75,1.41-1,1-.7,1.47-1.11.85-.64c.77-.58,1.52-1.16,2.27-1.75,1.15-.91,2.27-1.83,3.37-2.74l.63-.53c1-.89,2.09-1.78,3.1-2.68l.57-.52c1-.9,2-1.8,2.94-2.71l.13-.12c1-.94,1.92-1.88,2.85-2.82l.56-.57c.89-.92,1.77-1.84,2.61-2.77.16-.17.32-.34.47-.52.81-.9,1.61-1.8,2.38-2.71l.21-.25c.8-.95,1.58-1.91,2.33-2.87l.48-.61c.73-.94,1.44-1.89,2.12-2.84.12-.17.24-.35.37-.52.63-.9,1.25-1.8,1.84-2.7l.25-.37c.62-1,1.22-1.93,1.79-2.89l.4-.67c.56-1,1.1-1.92,1.61-2.88l.28-.53c.46-.89.91-1.79,1.34-2.68.07-.16.15-.32.23-.48.45-1,.87-1.94,1.28-2.91.09-.24.19-.47.29-.71.29-.74.58-1.48.85-2.22A137.25,137.25,0,0,1,197,270.12Z"/><path class="cls-1" d="M138.72,157l30.57,6,7.93-18.68,16,5.06L173.32,197.8l-66.06-15.58L88.64,197.8,79,187l68.2-54.12-25.92-5.58-6.92,16.36-15.86-5.07L118.33,90.2l62.28,15.45L199.36,90.2,209.05,101Z"/></svg>